<?xml version="1.0" encoding="UTF-8"?>
<svg xmlns="http://www.w3.org/2000/svg" viewBox="0 0 1280 720" role="img" aria-label="Echo Engineering PLC — Master Identity">
  <defs>
    <!-- Blueprint paper background -->
    <linearGradient id="bp" x1="0%" y1="0%" x2="100%" y2="100%">
      <stop offset="0%" stop-color="#f4f6fa"/>
      <stop offset="50%" stop-color="#e8ecf3"/>
      <stop offset="100%" stop-color="#dde3ed"/>
    </linearGradient>
    <linearGradient id="mE" x1="0%" y1="0%" x2="0%" y2="100%">
      <stop offset="0%" stop-color="#2c5294"/>
      <stop offset="100%" stop-color="#1a3a6e"/>
    </linearGradient>
    <linearGradient id="mWave" x1="0%" y1="0%" x2="100%" y2="0%">
      <stop offset="0%" stop-color="#8b9bb0" stop-opacity="0.5"/>
      <stop offset="30%" stop-color="#7a8a9e"/>
      <stop offset="70%" stop-color="#9ba8b8"/>
      <stop offset="100%" stop-color="#6b7d96" stop-opacity="0.5"/>
    </linearGradient>
    <linearGradient id="mSig" x1="0%" y1="0%" x2="100%" y2="0%">
      <stop offset="0%" stop-color="#ff6b35"/>
      <stop offset="100%" stop-color="#ffa726"/>
    </linearGradient>
    <radialGradient id="mGlow" cx="50%" cy="50%" r="50%">
      <stop offset="0%" stop-color="#ffa726" stop-opacity="0.4"/>
      <stop offset="100%" stop-color="#ff6b35" stop-opacity="0"/>
    </radialGradient>
    <filter id="paperGrain" x="0%" y="0%" width="100%" height="100%">
      <feTurbulence type="fractalNoise" baseFrequency="0.85" numOctaves="2" seed="3"/>
      <feColorMatrix values="0 0 0 0 0.1  0 0 0 0 0.15  0 0 0 0 0.25  0 0 0 0.04 0"/>
      <feComposite in2="SourceGraphic" operator="in"/>
    </filter>
  </defs>

  <!-- Paper background -->
  <rect width="1280" height="720" fill="url(#bp)"/>
  <rect width="1280" height="720" filter="url(#paperGrain)"/>

  <!-- Blueprint grid -->
  <g stroke="rgba(30,60,110,0.07)" stroke-width="0.8">
    <g id="vlines"></g>
    <g id="hlines"></g>
  </g>
  <g stroke="rgba(30,60,110,0.07)" stroke-width="0.8">
    <!-- vertical grid -->
    <line x1="40" y1="0" x2="40" y2="720"/><line x1="120" y1="0" x2="120" y2="720"/>
    <line x1="200" y1="0" x2="200" y2="720"/><line x1="280" y1="0" x2="280" y2="720"/>
    <line x1="360" y1="0" x2="360" y2="720"/><line x1="440" y1="0" x2="440" y2="720"/>
    <line x1="520" y1="0" x2="520" y2="720"/><line x1="600" y1="0" x2="600" y2="720"/>
    <line x1="680" y1="0" x2="680" y2="720"/><line x1="760" y1="0" x2="760" y2="720"/>
    <line x1="840" y1="0" x2="840" y2="720"/><line x1="920" y1="0" x2="920" y2="720"/>
    <line x1="1000" y1="0" x2="1000" y2="720"/><line x1="1080" y1="0" x2="1080" y2="720"/>
    <line x1="1160" y1="0" x2="1160" y2="720"/><line x1="1240" y1="0" x2="1240" y2="720"/>
    <!-- horizontal grid -->
    <line x1="0" y1="40" x2="1280" y2="40"/><line x1="0" y1="120" x2="1280" y2="120"/>
    <line x1="0" y1="200" x2="1280" y2="200"/><line x1="0" y1="280" x2="1280" y2="280"/>
    <line x1="0" y1="360" x2="1280" y2="360"/><line x1="0" y1="440" x2="1280" y2="440"/>
    <line x1="0" y1="520" x2="1280" y2="520"/><line x1="0" y1="600" x2="1280" y2="600"/>
    <line x1="0" y1="680" x2="1280" y2="680"/>
  </g>

  <!-- Technical drawing accents — corners -->
  <!-- Top-left dimension callout -->
  <g stroke="rgba(30,60,110,0.25)" stroke-width="1" fill="none">
    <line x1="40" y1="60" x2="200" y2="60"/>
    <line x1="40" y1="55" x2="40" y2="65"/>
    <line x1="200" y1="55" x2="200" y2="65"/>
  </g>
  <text x="120" y="52" text-anchor="middle" font-family="Courier, monospace" font-size="10" fill="rgba(30,60,110,0.55)">EE-V2.0</text>

  <!-- Top-right specs -->
  <g font-family="Courier, monospace" font-size="10" fill="rgba(30,60,110,0.55)">
    <text x="1240" y="50" text-anchor="end">SHEET: 01/01</text>
    <text x="1240" y="68" text-anchor="end">SCALE: 1:1</text>
    <text x="1240" y="86" text-anchor="end">DATE: 2026.05</text>
  </g>

  <!-- Bottom title block (engineering drawing style) -->
  <g stroke="rgba(30,60,110,0.35)" stroke-width="1.2" fill="none">
    <rect x="40" y="640" width="1200" height="50"/>
    <line x1="280" y1="640" x2="280" y2="690"/>
    <line x1="640" y1="640" x2="640" y2="690"/>
    <line x1="960" y1="640" x2="960" y2="690"/>
  </g>
  <g font-family="Courier, monospace" font-size="10" fill="rgba(30,60,110,0.6)">
    <text x="50" y="658">DESIGNED BY:</text>
    <text x="50" y="678" font-size="12" fill="rgba(30,60,110,0.9)">Echo Engineering PLC</text>
    <text x="290" y="658">CONCEPT:</text>
    <text x="290" y="678" font-size="12" fill="rgba(30,60,110,0.9)">Brand Identity — Master Lockup</text>
    <text x="650" y="658">STATUS:</text>
    <text x="650" y="678" font-size="12" fill="rgba(30,60,110,0.9)">Final · Approved</text>
    <text x="970" y="658">REV:</text>
    <text x="970" y="678" font-size="12" fill="rgba(30,60,110,0.9)">2.0 · 2026</text>
  </g>

  <!-- Decorative dimension marks around the logo area -->
  <g stroke="rgba(30,60,110,0.18)" stroke-width="0.8" fill="none">
    <line x1="320" y1="180" x2="320" y2="540"/>
    <line x1="960" y1="180" x2="960" y2="540"/>
    <line x1="315" y1="180" x2="325" y2="180"/>
    <line x1="315" y1="540" x2="325" y2="540"/>
    <line x1="955" y1="180" x2="965" y2="180"/>
    <line x1="955" y1="540" x2="965" y2="540"/>
  </g>

  <!-- ============================================ -->
  <!--          MAIN LOGO LOCKUP (CENTER)            -->
  <!-- ============================================ -->

  <!-- Mark — large, centered horizontally above wordmark -->
  <g transform="translate(525,170) scale(2.3)">
    <g fill="url(#mE)">
      <rect x="20" y="22" width="9" height="56" rx="1.5"/>
      <rect x="20" y="22" width="38" height="9" rx="1.5"/>
      <rect x="20" y="45.5" width="34" height="9" rx="1.5"/>
      <rect x="20" y="69" width="38" height="9" rx="1.5"/>
    </g>
    <g fill="none" stroke="url(#mWave)" stroke-width="3.6" stroke-linecap="round">
      <path d="M 30 26.5 q 3.5 -5.5 7 0 t 7 0 t 7 0 t 7 0"/>
      <path d="M 28 50    q 4   -6   8 0 t 8 0 t 8 0 t 8 0"/>
      <path d="M 30 73.5 q 3.5 -5.5 7 0 t 7 0 t 7 0 t 7 0"/>
    </g>
    <circle cx="68" cy="50" r="14" fill="url(#mGlow)"/>
    <circle cx="68" cy="50" r="3.2" fill="url(#mSig)"/>
    <circle cx="68" cy="50" r="1.2" fill="#ffffff" opacity="0.95"/>
    <g fill="none" stroke="url(#mSig)" stroke-width="0.7" opacity="0.5">
      <circle cx="68" cy="50" r="6.5"/>
      <circle cx="68" cy="50" r="10.5" opacity="0.6"/>
    </g>
  </g>

  <!-- Wordmark — centered -->
  <g text-anchor="middle" font-family="'Arial Black','Helvetica Neue',Arial,sans-serif">
    <text x="640" y="465" font-size="96" font-weight="900" fill="url(#mE)" letter-spacing="-3">ECHO</text>
    <text x="640" y="525" font-size="42" font-weight="300" font-family="'Helvetica Neue',Arial,sans-serif" fill="#7a8a9e" letter-spacing="9">ENGINEERING PLC</text>
  </g>

  <!-- Tagline with decorative side strokes -->
  <g stroke="url(#mSig)" stroke-width="2" stroke-linecap="round" fill="none">
    <line x1="400" y1="568" x2="450" y2="568"/>
    <line x1="830" y1="568" x2="880" y2="568"/>
  </g>
  <text x="640" y="573" text-anchor="middle" font-family="'Helvetica Neue',Arial,sans-serif" font-size="16" font-weight="600" fill="#1a3a6e" letter-spacing="6">CONNECTING ETHIOPIA  ·  POWERING PROGRESS</text>

  <!-- Decorative star accent (bottom-right of logo area) -->
  <g transform="translate(1180,610)" fill="url(#mSig)">
    <path d="M 0 -8 L 2 -2 L 8 0 L 2 2 L 0 8 L -2 2 L -8 0 L -2 -2 Z" opacity="0.7"/>
  </g>

</svg>
