<?xml version="1.0" encoding="UTF-8"?>
<svg xmlns="http://www.w3.org/2000/svg" viewBox="0 0 320 220" role="img" aria-label="Echo Engineering PLC">
  <defs>
    <linearGradient id="sbg" x1="0%" y1="0%" x2="100%" y2="100%">
      <stop offset="0%" stop-color="#0a1929"/>
      <stop offset="55%" stop-color="#0f2440"/>
      <stop offset="100%" stop-color="#1e88e5"/>
    </linearGradient>
    <linearGradient id="ssignal" x1="0%" y1="0%" x2="100%" y2="0%">
      <stop offset="0%" stop-color="#ff6b35"/>
      <stop offset="100%" stop-color="#ffa726"/>
    </linearGradient>
  </defs>

  <!-- Mark centered horizontally, top -->
  <g transform="translate(110,15)">
    <rect width="100" height="100" rx="22" fill="url(#sbg)"/>
    <rect x="1.5" y="1.5" width="97" height="97" rx="20.5" fill="none" stroke="rgba(255,255,255,0.06)" stroke-width="1"/>
    <g fill="#ffffff">
      <rect x="22" y="22" width="8" height="56" rx="2"/>
      <rect x="22" y="22" width="28" height="8" rx="2"/>
      <rect x="22" y="46" width="32" height="8" rx="2"/>
      <rect x="22" y="70" width="28" height="8" rx="2"/>
    </g>
    <circle cx="60" cy="50" r="3.6" fill="url(#ssignal)"/>
    <g fill="none" stroke="url(#ssignal)" stroke-width="2.6" stroke-linecap="round">
      <path d="M 67 44 a 8 8 0 0 1 0 12" opacity="0.95"/>
      <path d="M 73 38 a 16 16 0 0 1 0 24" opacity="0.75"/>
      <path d="M 79 32 a 24 24 0 0 1 0 36" opacity="0.55"/>
    </g>
  </g>

  <!-- Wordmark centered below -->
  <g text-anchor="middle">
    <text x="160" y="148" font-family="'Arial Black','Helvetica Neue',Arial,sans-serif" font-size="32" font-weight="900" fill="#0a1929" letter-spacing="-0.5">ECHO ENGINEERING</text>
    <text x="160" y="172" font-family="'Helvetica Neue',Arial,sans-serif" font-size="11" font-weight="600" fill="#1e88e5" letter-spacing="4">TELECOM · ELECTRO-MECHANICAL · ETHIOPIA</text>
    <rect x="130" y="184" width="60" height="2" rx="1" fill="url(#ssignal)"/>
  </g>
</svg>
